<?xml version="1.0"?>
<svg xmlns:rdf="http://www.w3.org/1999/02/22-rdf-syntax-ns#" xmlns="http://www.w3.org/2000/svg" xmlns:cc="http://web.resource.org/cc/" xmlns:xlink="http://www.w3.org/1999/xlink" xmlns:dc="http://purl.org/dc/elements/1.1/" id="svg1340" viewBox="0 0 239.87 357.62" version="1.0">
  <defs id="defs1343">
    <radialGradient id="radialGradient6971" gradientUnits="userSpaceOnUse" cy="405.58" cx="-190.01" gradientTransform="matrix(1 0 0 .88345 0 51.449)" r="124.53">
      <stop id="stop5923" stop-color="#ffc0ff" offset="0"/>
      <stop id="stop5925" stop-color="#b80e9b" offset="1"/>
    </radialGradient>
    <radialGradient id="radialGradient6993" gradientUnits="userSpaceOnUse" cy="382.19" cx="-204.09" gradientTransform="matrix(1 0 0 .89150 0 47.897)" r="133.77">
      <stop id="stop5980" stop-color="#ffd83a" offset="0"/>
      <stop id="stop5982" stop-color="#ff0e00" offset="1"/>
    </radialGradient>
    <radialGradient id="radialGradient7021" gradientUnits="userSpaceOnUse" cy="94.229" cx="-2123.8" gradientTransform="matrix(2.6692 -.26342 .23267 2.3577 3526.1 -735.2)" r="948.62">
      <stop id="stop6915" stop-color="#fff" offset="0"/>
      <stop id="stop6917" stop-color="#ffdc00" offset="1"/>
    </radialGradient>
    <linearGradient id="linearGradient7904" y2="437.49" gradientUnits="userSpaceOnUse" x2="375.16" gradientTransform="matrix(.68067 0 0 1 112.33 -2.7991)" y1="437.49" x1="319.64">
      <stop id="stop7900" offset="0"/>
      <stop id="stop7902" stop-color="#610205" offset="1"/>
    </linearGradient>
  </defs>
  <g id="layer3" transform="translate(-223.27 -112.94)">
    <path id="path7023" d="m335.89 419.77c-5.08 36.38-1.91 27.05-5.08 36.38-3.18 9.33 8.25 14 8.25 14l17.78-1.87s3.81 1.87 8.26-0.93 1.27-13.06-0.63-29.86c-1.91-16.79-13.34-38.25-13.34-38.25l-15.24 20.53z" fill-rule="evenodd" stroke="#000" stroke-width=".82503px" fill="url(#linearGradient7904)"/>
    <g id="g6932" transform="matrix(.33814 0 0 .32565 220.97 118.82)">
      <path id="path2369" d="m246.99 943.61c-13.06 1.87-13.06 17.26-33.58 16.8-20.53-0.47-23.26-17.6-46.9-5.67-28.91 14.59-36.14-13.46-55.74-20.46-19.592-7-19.126-9.8-24.257-20.53-5.132-10.73 10.73-4.66 3.732-22.39s-21.043-13.13-21.976-35.52 17.727-22.86 27.991-41.05c10.26-18.2-9.072-4.67 8.19-31.73 17.26-27.05 40.38-48.91 51.11-89.5s-11.45-63.71-1.69-77.72c34.2-49.11 41.34-105.62 61.4-142.48 20.06-36.85 9.8-1.4 7.47-13.06-2.34-11.66-10.8-6.11-3.8-23.84 6.99-17.73 22.92-27.94 31.79-47.07 8.86-19.13 0.62-21.01 5.29-35.94 4.66-14.93 11.93 3.22 19.87-10.78 7.93-13.99-10.24-33.52-2.77-48.45 7.46-14.93 21.46-12.13 26.12-24.26 4.67-12.13 0.44-3.35-4.21-21.82 12.82 3.96 15.19-14.84 30.1-52.4 7.68-19.37 11.64-3.72 18.18-12.58 6.53-8.87 5.38-15.83 6.32-32.63 0.93-16.79-4.13-23.84 1.47-31.3 5.6-7.47 11.59 8.91 20.92 1.45 9.33-7.47 2.33-33.126 7.47-41.057 5.13-7.931 11.66-0.933 13.06 9.33 1.4 10.264 2.06 13.907 0.66 26.037s-4.08 24.69 1.05 23.29 11.44-19.17 17.04-12.64c5.59 6.53 3.38 17.77 2.92 38.77-0.47 20.99-8.64 58.04-3.98 65.51 4.67 7.46 22.72-31.4 28.32-23.47s-8.14 14.17-6.74 26.76c1.4 12.6-10.35 2.7 1.78 10.63s32.19 6.99 41.05 18.66c8.87 11.66-2.36 17.02 0.9 29.61 3.27 12.6 13.57 7.71 12.17 20.77s-11.01 15.64-16.14 28.23c-5.13 12.6-15.12 10.03-4.39 22.15 10.73 12.13 30.32 32.51 52.18 39.37 25.07 7.86-28.85 22.68-16.72 59.54 12.12 36.85 36.38 46.18 52.25 76.51 15.86 30.32 10.73 23.32 11.19 44.78 0.47 21.46-18.19 20.53-9.33 41.05 8.87 20.53 28.51 40.03 39.91 50.8 15.66 14.8-12.19 9.59-5.66 36.18 6.53 26.6 21.73 31.99 36.66 60.44 14.93 28.46-2.8 22.4 14.93 48.52 17.73 26.13 50.85 36.86 55.98 55.98 5.13 19.13-20.99 5.6-35.45 20.53s-7.19 44.25-30.52 52.18c-23.32 7.93-26.86-25.59-62.79-20.46-35.92 5.13-37.58 34.22-72.77 27.99-30.99-5.47 5.46 29.05-48.52 5.6-25.76-11.19-31.26-13.99-63.45-14.93-32.19-0.93-38.97-2.93-65.31 11.2-29.86 16.02-35.92-1.87-54.12-5.6-18.19-3.73-5.59-11.19-18.66-9.33z" fill="#1e7523" fill-rule="evenodd"/>
      <path id="path4124" opacity=".35393" d="m287.22 320.75c-3.84 0.61-8.24 4.21-9.92 6.6 4.15 4.72-0.11 12.49 5.01 16.72 3.69 2.45 8.44 1.3 12.28-0.16 4.93 0.09 10.38 1.8 14.64-1.68 3.04-0.86 6.33-7.46 7.89-2.44 3.83 2.98 5.73 7.73 9.81 10.39 5.1 3.22 10.55-1.57 15.99-0.95 4.19 0.5 8.47-0.74 11.42-3.86 3.42-1.51 7.84 2.7 11.76 3.14 3.98 1.37 8.22 0.76 12.06-0.69 4.22-0.87 9.75 0.63 12.69-3.36 3.15-5.28-4.66-4.93-7.38-6.8-4.75-2.66-10.7-2.91-15.29-5.01-7.73-6.69-19.39-5.46-27.8-0.75-5.46 2.67-10.1-1.65-14.65-3.68-5.94-1.75-12.76-1.32-18.01 2.16-3.39 0.02-9.67 2.97-10.78-1.17-1.35-4.2-8.31-5.31-5.86-10.08-1.31-0.31-2.61 1.26-3.86 1.62z" fill="#73ff2d"/>
      <path id="path4129" opacity=".19101" d="m437.28 257.38c-4.32 0.83-9.43 3.53-7.88 8.71-2.93 3.46-8.38 3.27-12.03 6.05-6.74 3.14-13.21 6.9-19.32 10.82-6.1-1.31-11.37 2.4-16.23 5.4-7.05 1.77-12.62 8.29-19.95 8.22-5.85-0.45-11.1 2.27-16.94 1.72-5.9-0.39-11.52-3.65-16.68 1.46-4.5 4.72 3.31 6.89 6.96 7.26 4.22 1.37 8.73-0.51 13.08-0.53 5.31 0.61 11.48-1.06 16.09 1.07 9.17 1.89 19.22 2.3 27.84-1.94 8.56 1.79 16.49-4.08 21.4-10.56 8.87 0.17 18.25 0.6 26.31-3.75 8.27-2.96 15.91-7.94 24.76-9.12 1.99-2.95 9.72-4.67 9.07-7.86-3.65-0.96-9.08 2.56-9.65-2.16-2.89-3.23-9.46-0.33-11.05-0.93-0.01-6.72-8.92-1.43-9.18-7.16-4.4 4.04 0.15-8.71-6.6-6.7zm-11.84 27.96c-3.42-1.18-1-4.88 0 0z" fill="#c1eb5f"/>
      <path id="path4134" opacity=".25596" d="m509.07 399.76c-3.35 3.52-25.36 0.75-31.02 13.34 4.97 2.76-5.2 6.37-0.15 10.87 5.87 9.63-7.42 9.84-12.11 3.8-6.9-7.29-17.1-14.89-28.33-10.5-10.06 3.71-21.48 9.72-24.33 19.93-1.56 7.53 1.96 19.23-3.1 24.12-7.1-3.17-10.52-10.32-16.75-14.48 1.95-2.32 4.61-7.23-1.81-4.61-5.57 4.9-15.46 3.78-19.75 10.97-9.16-7.43-23.22-5.27-32.5-12.5-4.58-9.17-17.06-8.4-26.33-8.11-11.13 0.96-22.3 1.64-33.46 1.31-9.95 1.64-20.43 6.63-26.17 14.12 5.64 5.59 17.84-1.43 26.21 1.46 11.42 0.97 21.83 8.26 33.5 4.09 9.27 1.44 17.02 6.99 25.18 10.86 7.27 7.27 17.31 6.82 26.38 3.45 9.81-0.62 15.4 7.95 23.38 11.56 9.26 5.91 21.54 7.49 31.92 3.03 11.66-3.28 18.37-14.25 15.42-25-1.09-5.38-9.74-13.32-3.83-2.58 9.46 9.59 34.98 1.38 47.63-0.77 11.84-2.47 26.11-7.94 28.52-20.03 1.51-12.34-5.22-24.45-15.57-32.21-0.44 0.23 17.51-2.36 17.07-2.12z" fill="#0f0"/>
      <path id="path5012" opacity=".2191" d="m240.01 419.17c-14.17 2.24-22.99 36.87-11.26 47.42-0.04 13.88 12.86 18.29 18.47 28.82 8.96 7.19 10.29 14.55 20.94 18.95 12.58 0.62 11.54 7.92 34.9 5.69 11.71 9.22 34.56 12.97 47.72 18.41 12.91 5.13 25.96 10.21 40.47 9.96 10.23 3.35 21.14-0.04 31.38 3.23 11.41 5.28 23.69 10.66 37.35 8.58 7.5-2.01 6.37 6.09 14.77 5.92 6.7 6.79 19.22 5.96 28.48 5.34 12.19-3.64 21.82-14.97 35.55-13.46 9.17 2.91 34.49-4.52 20.83-15.58-8.01 0.43-9.14-1.97-12-7.68-11.21 0.82-21.84 7.93-32.8 11.23-16.39-3.87-33.32-0.73-49.9-2.56-8.95-7.65-21.61-7.8-32.38-11.33-10.89-2.17-23.62 1.91-32.19-6.84-10.3-7.88-23.46-8.99-34.81-14.05-8.31-7.67-21.6-3.21-29.86-11.25-9.51-9.93-24.09-5.48-34.04-13.22-11.46-0.05-25.27 0.44-32.54-10.75-4.75-9.82-16.31-14.2-20.31-24.16-1.37-5.21-1.91-32.92-8.77-32.67z" fill="#4dff54"/>
      <path id="path5017" opacity=".15169" d="m221.31 486.19c-7.51 2.45-17.66 7.26-16.72 16.72 1.1 6.66 6.75 11.68 7.16 18.62 1.48 11.19 2.83 22.43 3.91 33.69 0.54 11.06 1.23 23.35-5.35 32.81-2.55 6.22-5.18 16.21 1.63 20.63 5.1 2.54 9.74-1.84 14.15-3.44 6.62 1 13.26 7.67 20.35 3.94 10.56-4.95 22.25-8.45 33.94-6.6-5 2.37-8.74 10.72-2.47 13.91 2.62 1.33 5.89 0.9 6.06 4.65 3.93 8.32 10 15.7 16.22 22.29 13.8 9.04 30.74 1.89 45.97 2.56 8.57-0.68 17.8-4.38 22.46-11.81 8.26 5.3 16.71-3.17 25.04-3.07 5.12 0.59 5.69 6.99 10.06 9.1 8.55 6.34 20.18 4.63 29.37 9.25 11.26 1.97 19.91-8.44 24.63-17.28 0.98-2.75 4.32 1.66 6.12 1.87 10.11 5.45 18.18 14.07 27.75 20.09 11.83 5.24 28.24 0.12 33.79-11.96-10.33-3.57-23.49-2.89-30.37-12.89-8.72-7.34-18.76-13.98-29.98-16.46-11.12 0.12-20.08 8.42-25.97 17.07-9.32-0.27-19.96-2.74-24.56-11.79-4.45-6.48-13.28-5.08-19.12-1.53-2.73 1.11-7.06 3.47-9.47 1.63 3.38-5.99-1.88-12.52-7.94-13.72-33.96-9.79-56.89 61.2-86.94-12.14-8.07 4.27-34.84 3.69-44.31-0.52-3.37-2.64-6.43-7.23-11.5-5.56-1.62-0.1-5.96 3.05-3.84 0 8.55-15.64 9.92-21.68 8.58-38.71-7.45-16.46-6.03-34.83-10.73-44.87-2.02-5.88-3.56-11.83-5.98-17.48-0.65 0.33-1.29 0.66-1.94 1z" fill="#6fff57"/>
      <path id="path5024" opacity=".20225" d="m563.84 614.56c-9.92 3.03-17.21 12.1-20.78 21.51-3.32 9.38 5.12 14.98 11.56 19.53 7.09 7.92 7.95 19.23 13.94 27.81-3.12 8.68-11.48 12.72-20.23 11.64-9.94-0.79-17.33 12.07-25.63 4.49-10.18-2.62-19.29 8.27-21.23 15.18-10.37-2.92-20.71-11.37-31.91-6.75-10.84 4.2-20.08 11.71-28.71 19.3-5.79 8.51-20.47 6.02-24.78 17.48-0.25 6.47-10.84 11.18-7.78 16.52 7.58-0.68 13.81-6.39 20.28-10.12 9.47-6.14 18.54-13.95 29.99-15.84 9.56 1.71 17.91-4.66 27.02-5.94 12.44 0.04 26.93 4.57 37.53-4.21 7.85-2.01 15.7-4.66 22.19-10.12 4.41-8.33 14.02-1.33 21.02-4.02 8.96-1.5 18.96-5.66 23.22-14.22 4.2-8.1 5.99-18 1.38-26.35-3.02-7.43-5.71-14.84-11.85-20.3-6.62-6.93-10.24-16.57-8.77-26.14 0.55-4.12-1.23-10.1-6.46-9.45zm-77.4 107.03c-7.49 3.3-1.06-6.25 0 0zm-21.5-2c4.73-0.92 16.61 3.54 5.93 3.97-5.41 2.72-9.87 2.49-15.87 3.56 2.73-3.05 5.45-7.17 9.94-7.53zm-57.16 40.32c-1.47-0.65 2.17-1.27 0 0z" fill="#33ff5f"/>
      <path id="path5029" opacity=".14607" d="m190.72 688.16c-13.06 1.62-25.43 7.46-36.09 14.97-2.36 2.53-12.52 9.18-3.09 8.03 11.94-1.45 23.55 2.07 35.04 4.65 11.15-0.02 22.98 4.87 24.95 17.12 2.8 9.95 9.81 17.43 10.73 27.76 0.8 4.34-3.59 11.63 4.41 13.69 14.55 8 31.88 8.37 47.84 5.33 7.6 0.73 15.05-3.38 22.21 0.57 12.6 3.03 21.84-8.5 31.12-13.42 11 0.4 20.98-5.63 31.93-5.26 8.26 0.19 27.92-8.49 16.57-17.47-8.23-2.53-16.7-8.41-25.59-4.88-14.16 2.74-26.23 11.05-38.54 17.97-8.77 0.27-17.53-1.52-26.4 0.24-11.3-1.31-25.39 5.47-34.02-4.73-10.49-10.86-5.97-27.81-14.79-39.58-11.01-14.07-27.89-25.32-46.28-24.99z" fill="#4dff1e"/>
      <path id="path5034" opacity=".14045" d="m116.22 780.75c-15.38 4.95-12.8 25.02-2.94 34.05 12.13 15.71 36.47 12.02 49.55-0.37 6.97-3.36 19.21 5.58 11.26 15.6 2.65 6.92 11.69 4.24 12.5 13.29 5.92 8.34 29.07-2.88 26.97 5.01-15.05 0.43-13.62 24.63 1.58 17.8 3.44 13.77 22.07 5.78 32.22 9.83 12.44-7.05 16.49 11.19 30.26 6.57 5.43 8.3 16.94 11.98 24.04 17.35 6.73-1.3 29.6-8.95 15.29 1.81-10.83 16.57 15.79 18.96 24.58 9.53 11.71-2.33 16.58-13.37 26.79-18.48 4.5-6.16 15.59-6.38 17.09-15.96 9.03 12.15 25.08-4.93 24.76-16.04-5.6-11.39-0.93-22.54 2.64-33.84-0.27-9.95 13.89 7.39 8.4 9.01 8.21 1.71 13.64 15.56 25.76 10.25 10.79-2.85 20.88-13.56 14.19-24.98-5.52-6.87 2.38-23.36-9.67-13.7-11.15 2.01-12.91 14-7.18 22.08-11-1.44-5.7-22.17-21.31-18.22-13.85-0.76-29.12 8.6-28.17 23.71-4.97 6.19-1.57 16.03-12.29 13.24-8.59 0.05-9.46 10.81-11.35 12.27-13.31-2.31-22.55 11.12-17.44 23.16-13.07 6.66-27.06-7.97-39.16 3.75-10.66-5.73-18.12-16.92-31.07-17.96-8.32-3.42-12.17-10.6-22.53-10.42-7.77-3.86-19.12-8.01-24.99-10.93 1.34-21.6-23.44-10.84-34.53-17.44 3.25-9.9-17.98-6.8-4.86-13.33 14.74-4.25 4.73-26.46-8.78-20.96-13.46 4.16-26 6.78-39.97 7.13-11.64-2.99-15.11-23.62-31.64-22.81z" fill="#43ff4d"/>
      <path id="path5040" opacity=".22472" d="m652.81 831.31c-6.31 4.92-11.97 10.68-18.8 3.5-13.02-6.26-32.91-1.04-36.99 13.98-1.97 8.66-15.69-4.76-22.68 1.06-11.98 4.48-24.41-4.68-34.15 4.84-10.19 10.42-26 1.71-38.54 7.58-10.43 2.56-21.69 5.67-29.34 13.7 0.88 5.01 2.92 5.38-3.49 7.4-8.52 3.88-14.16 12.38-23.63 14.26-11.52 3.56-23.72 6.67-32.84 14.98-7.31 0.85-18.27 11.11-5.52 13.15 11.46 0.94 21.38-7.34 32.7-7.23 15.83-1.66 30.87-8.56 43.44-18.02 6.46-1.34 8.75-9.79 9.85-10.95 14.47 1.13 26.3-8.49 39.73-11.23 5.27-4.49 11.73-2.85 5.51 3.38-3.02 5-14.93 15.61-1.92 15.37 14.88-0.41 24.64-13.68 33.76-23.78 3.72-8.38 13.79-1.96 20-0.95 3.1 10.06 16.13 10.91 24.03 6.24 9.87-3.2 28.49-13.86 22.33-24.12 8.83 1.64-1.17 14.78 10.53 15.79 12.28-1.8 8.38 19.46 21.96 18.27 9.87-0.91 24.07-7.68 21.77-19.52-5.14-8.67-11.92-16.49-18.62-24.06-5.52-4.59-12.36-13.29-19.09-13.64z" fill="#3dff3e"/>
      <path id="path2362" d="m389.98 58.34c-25.09 17.839-6.07 88.12-38.4 52.87-21.91 23.3 12.02 97 4.21 33.03-6.83-59.738 17.5 38.78 25.14-7.44 29.15 61.81 16.51-35.86 19.12-58.156-2.43-5.495-2.77-18.578-10.07-20.304zm-0.28 34.237c10.58 20.963-14.89 35.063-1.64 1.32l1.64-1.32zm23.45 28.613c-18.11 8.49 12.63 56.76-6.97 59.54-0.24-39.44-11.85 92.31 18.43 42.83-5.17 16.05-12.97 51.03 17.06 35.24-11.8 24.84 50.84 11.61 1.69 26.74-27-4.37-53.51 22-37.57 25.63 24.08-11.07 47.87-5.92 45.53-8.52 6.81-0.59 37.42 19.45 36.72 15.63-61.27 29.17-0.81 78.21 16 101.81 6.35 14.96-48.72 41.49-63.74 6.06-12.88 26-2.44 47.06-21.01 46.66-18.5 14.4-26.12-23.01-48.26-3.95-30.24-1.71-14.18-33.95-48.94-22.72-43.66-1.94-9.56 25.91 11.97 14.04-0.99 25.14 9.53 29.12 34.22 32.27 19.56-32.99 61.79 47.61 59.56-11.02 9.39-28.94 61.33-32.56 76.04-21.97-15.93 48.79 42.17 71.37 62.02 93.88-10.41-24.99-2.02-35.07-27.18-41.23 1.79-26.61-25.99-55.03-29.04-60.5 27.66 17.23 16.8 4.65 0.93-11.1 1.51-22.63 33.45-53.61-9.09-50.44-49.03-15.05-31.41-39.89 1.92-68.76 20.36-18.63-28.85 15.4-0.65-6.49-47.6-4.62 9.5-63.58-35.78-54.07-18.13-9.08-14.63-27.85-36.85-13.58 10.61-29.76 18.27-72.66-12.36-33.35-8.44-28.19 4.68-65.21-4.65-92.63zm-25.12 10.33c11.05 13.51-4.58 14.04 0 0zm-48.07 47.74c-27.48 0.84-15.48 41.91 4.01 14.35 18.98 6.79 7.35-17.39-4.01-14.35zm93.73 37.66c2.4 23.43-21.81 41.41-4.54 6.7l3.05-6.13 1.49-0.57zm-123.74 15.85c-2.51 38.09 8.53 11.82 10.14 14.75 0.26 35.83 13.37 31.53-5.35-9.76l-4.49-5.68-0.25 0.57-0.05 0.12zm-15.41 13.77c7.27 39.3 5.77 30.95-5.52 33.99 24.43 25.45 21.55-28.77 5.52-33.99zm182.36 27.75c-6.71 13.3 4.27 14.9-17.7 19.17-5.55-8.8 14.96-10.01 17.7-19.17zm-193.66 12.35c-25.91 16.78 7.83 70.17-39.83 58.8 13.51 45.65-39.04 90.15-42.95 112.37 23.57 11.63 28.84 10.06 6.2 24.81 0.04 44.45-24.06 66.52-42.33 105.13 9.28 19.53-47.85 14.47-24.65 47.32 25.62 1.09-19.73 23.36 0.7 47.99 16.56 23.35-28.06 29.8 9.38 37.52 7.08 17.11 58.94-18.55 59.76 12.45 0.91-2.22 4.83-15.58 16.75 4.16-2.48-3.01-3.1 71.59 7.96 28.69 17.5-43.18-39.98-77.13-74.25-54.7 5.44-33.6 29.22-60.02-2.36-88.21 30.98-12.4 51.37-67.58 47.55-86.52 15.3 32.67 18.52 48.48 1.23 79.04 17.67 4.86 21.21-7.95 21.77 12.3 15.32-9.71 76.93-3.07 53.69 12.15-11 10.47-15.64 29.07-3.27 17.34 8.53-12.25 52-10.52 22.05-28.03-19.76-4.14-20.67-58.67-45.77-18.18-20.73 14.76-2.95-34.69-31.93-6.67-15.83 2.21 4.52-22.42 1.43-8.75 17.13-31.39-15.03-67.93-2.71-101.26 3.85-18.81 31.8 11.07 20.72-25.6-45.17-32.89 52.16-53.8 14.51-90.2-1.39-36.92 51.66-18.89 58.07-22.43 7.93 43.18 67.67-41.07 21.58-11.95-9.76 14.62-17.23-34.99-27.47-1.01-11.07-15.43-30.56 16.97-26.12-21.5-1.33-20.42 34.42-27.51 0.1-23.5 7.23-4.71 14.67-5.71 0.19-11.56zm54.35 60.27c4.05 9.87-18.14 19.81-3.72 3.62l3.72-3.62zm45.99 9.3c-22.63 0.52-44.01 20.5-27.12 46.12 3.76-29.71 55.62-50.06 45.81-39.74-4.98-4.98-12.21-6.35-18.69-6.38zm120.8 76.78c-16.21 24.67-2.12 6.71 0 0zm-59.11 8.64c27.61 8.77-33.06 20.68 0 0zm-127.38 9.18c-13.94 21.97-2.07 6.39 0 0zm-64.85 43.62c-35.79 1.22 23.01 29.33 20.64 36.43 12.66-19.8 67.45 12.66 62.1-15.41-28.77-4.67-54.67-11.63-82.74-21.02zm37.14 17.66c22.69 0.17 36.2 10.32 5.06 6.09-0.07 1.1-12.51-4.92-5.06-6.09zm135.64 33.79c-46.11 18.01 10.13 15.42 18.75 28.53-13.1 30.93 42.74-24.28 47.81 22.92 9.74 4.68 9.29-34.3 26.44-14.48 28.84-37.7 27.87 44.81 35.86 61.77 24.6 17.71 56.4 61.68 2.96 60.25-14.81 28.47-23.71-28.82-29.81 13.3-5.81 33.2-75.6-37.84-69.22 14.25 27-8.99 2.11 14.16 32.82 12.96 16.87-27.39 31.28 49.48 40.57-1.92 26.25-47.33 97.64-13.35 69.35 38.33 11.83 22.86 39.08 27.04 31.67 54.01 49.6-7.79-10.14-26.09 8.23-60.89-16.86-28.95-59.22-67.68-25.38-105.02-39.97-6.47-55.46-43.29-42.11-82.82-6-31.42-30.73-46.48-42.87-27.67-39.33 21.69-66.29-3.03-105.07-13.52zm-38.44 54.03c-18.54 18.57 21.4 15.36-6.45 26.78-10.8-2.74-34.1 14.77-31.75 21.9-14.39-28.52-23.04 41.77-26.95-0.16-15.52 28.82-10.74 15.58 10.56 22.18 7.6-1.17 37.44-29.4 56.16-40.52 17.91 32.89 34.29-26.41 7.5-15.74-3.49-2.21-3.61-14.04-9.07-14.44zm-145.99 17.53c16.88 2.38-27.37 8.35 0 0zm229.92 9.07c-42.61-10.58 5.12 71.34-28.07 22.77-21.44-38.12-46.05 27.68-7.26 7.5 20.4 5.22 27.05 27.29 23.93-7.14 29.88-10.6 18.12-19.71 11.4-23.13zm-323.41 92.58c-4.45 7.41-31.09 50.39-59.05 61.43-21.366 8.43 2.11 44.58-20.97 62.81-19.856 15.69 41.31 47.43 22.164 63.37-20.965 17.46 16.296 42.84 61.456 59.79 22.27-4.65 44.15-0.05 81.54 5.55 34.63-14.5 67.4 10.99 105.94 7.91 19.21-7.8 41.4-18.22 64.33-21.28 9.66 6.75 120.55 29.66 166.59-12.03 101.06 32.54 84.08-29.27 134.98-63.31 49.3 1.4-80.79-5.03-42.76-11.48-22.05-31.49-63.82 29.97-71.71-14.07-28.97-5.98-72.9 81.83-26.97 37.8 15.68-20.93 25.21-27.14 39.26-4.91 36.97-33.12 72.66 62.36 23.65 49.86-25.89-4.27-70.36-53.25-67.56-5.18-15.08-13.21-40.53 50.03-57.73 3.18-13.29-14.45-26.84 33.78-19.32 30.89-4.14 30.23-25.21-26.95-42.64-18.21-29.54-36.05-62.74 2.66-94.15-11.43-22.94 11.57-65.95 52.12-57.23-4.34-14.69-24.28-50.66 20.29-65.76 25.49-8.19-45.05-76.49 5.99-83.52-18.19 7.17-13.91-18-9.49-32.26-17.55 34.44-29.54-77.577-64.27-12.802-86.92 16.202-9.73 128.39-6.73 76.642-28.14-27.49 11.13-46.47 32.9-63.69-18.14 6.85-20.02 40.94-53.67 41.57-72.9zm211.82 30.72c-13.99 9.42-9.72 19.39-32.44 4.13-13.86 9.64 7.33 18.92-14.48 16.03-27.3 23.51-60.29-19.42-80.24 18.2 22.52-19.31-2.94 15.98-17.45 8.21-11.87 52.9 43.7-41.88 44.4-1.18 22.83-26.65 56.62 41.82 52.54-14.05 0.25-9.8 63.69-20.73 49.27-24.44-3.86 28.56 55.93 18.91 16.52-2.51-5.65-2.91-11.87-4.55-18.12-4.39zm-23.45 7.02c2.19 10.64-13.26 9.32 0 0zm78.29 1.27c-35.62-1.22-1.29 65.83-2.46 14.95 5.85-4.69 18.75-12.05 2.46-14.95zm196.81 10.2c13.36 1.59 6.22-6.67 0 0zm-154.75 40.67c-2.78 19.06 11.56 49.18-11.77 24.17-22.74 38.19-9.62-38.82-34.44-7.15-22.12 17.83 8.1 72.94 3.99 23.78-3.88-26.84 58.57 40.01 46.43-11.11-3.56-18.3 56.68 34.46 49.78-0.03-30.89-26.14-39.51 5.41-53.99-29.66zm182.39 16.23c11.38 8.53-17.64 8.99 0 0zm-463.01 12c-5.23 50.87 11.62 32.53 8.2 43.66 24.53-22.09 49.04-50.33 5.61-33.97-3.8-4.39-8.35-8.29-13.81-9.69zm370.02 29.55c-11.64 20.44-73.44 8.6-57.49 34.04 19.64-0.33 65.43 0.62 57.49-34.04zm28.14 0.76c17.92 5.79-6.56 9.15 0 0zm-184.37 0.06c-22.58 13.58 38.82 40.66 12.74 6.16l-5.82-4.42-6.92-1.74zm-116.54 8.52c-37.29 7.26 20.52 43.71 3.48 11.73 36.28 23.13 8.57-9.5-3.48-11.73zm102.62 9.05c-22.71-5.96-14.31 33.28-28.94 11.8-19.82 18.16-17.21 30.36-24.98-1.62-36.78-14.12-57.53 58.68-17.32 10.23 19.53-24.4 8.22 9.78 10.32 9.51-3.91 15.66 13.16 38.16 24.5 8.34 15.29 3.37 21.22 2.17 41.48-10.81-2.07-8.5 6.65-5.81-5.06-27.45zm-34.89 28.24c-10.04 25.9 6.67 6.56 0 0zm65.92 44.55c21.83 21.58 7.43 28.69-6.47 1.45l3.28-1.51 3.19 0.06zm-400.1 17.96l0.0703-0.61-0.0703 0.61z"/>
      <path id="path5046" style="color:#000000" d="m-18.473 441.43a124.03 109.52 0 1 1 -0.939 -13.45" transform="matrix(.17228 0 0 .17219 508.81 204.44)" stroke="#000" stroke-width="19.469" fill="url(#radialGradient6971)"/>
      <path id="path5934" style="color:#000000" d="m-18.473 441.43a124.03 109.52 0 1 1 -0.939 -13.45" transform="matrix(.17228 0 0 .17219 394.01 321.88)" stroke="#000" stroke-width="19.469" fill="url(#radialGradient6971)"/>
      <path id="path5938" style="color:#000000" d="m-18.473 441.43a124.03 109.52 0 1 1 -0.939 -13.45" transform="matrix(.17228 0 0 .17219 267.34 453.83)" stroke="#000" stroke-width="19.469" fill="url(#radialGradient6971)"/>
      <path id="path5942" style="color:#000000" d="m-18.473 441.43a124.03 109.52 0 1 1 -0.939 -13.45" transform="matrix(.17228 0 0 .17219 528.6 725.64)" stroke="#000" stroke-width="19.469" fill="url(#radialGradient6971)"/>
      <path id="path5946" style="color:#000000" d="m-18.473 441.43a124.03 109.52 0 1 1 -0.939 -13.45" transform="matrix(.17228 0 0 .17219 277.9 878.71)" stroke="#000" stroke-width="19.469" fill="url(#radialGradient6971)"/>
      <path id="path5950" style="color:#000000" d="m-18.473 441.43a124.03 109.52 0 1 1 -0.939 -13.45" transform="matrix(.17228 0 0 .17219 370.26 68.53)" stroke="#000" stroke-width="19.469" fill="url(#radialGradient6971)"/>
      <path id="path5954" style="color:#000000" d="m-18.473 441.43a124.03 109.52 0 1 1 -0.939 -13.45" transform="matrix(.17228 0 0 .17219 620.97 596.33)" stroke="#000" stroke-width="19.469" fill="url(#radialGradient6971)"/>
      <path id="path5958" style="color:#000000" d="m-18.473 441.43a124.03 109.52 0 1 1 -0.939 -13.45" transform="matrix(.17228 0 0 .17219 164.42 654.39)" stroke="#000" stroke-width="19.469" fill="url(#radialGradient6971)"/>
      <path id="path5962" style="color:#000000" d="m-18.473 441.43a124.03 109.52 0 1 1 -0.939 -13.45" transform="matrix(.17228 0 0 .17219 430.96 712.45)" stroke="#000" stroke-width="19.469" fill="url(#radialGradient6971)"/>
      <path id="path5966" style="color:#000000" d="m-18.473 441.43a124.03 109.52 0 1 1 -0.939 -13.45" transform="matrix(.17228 0 0 .17219 462.63 522.44)" stroke="#000" stroke-width="19.469" fill="url(#radialGradient6971)"/>
      <path id="path5970" style="color:#000000" d="m-18.473 441.43a124.03 109.52 0 1 1 -0.939 -13.45" transform="matrix(.17228 0 0 .17219 668.47 823.29)" stroke="#000" stroke-width="19.469" fill="url(#radialGradient6971)"/>
      <path id="path5974" style="color:#000000" d="m-18.473 441.43a124.03 109.52 0 1 1 -0.939 -13.45" transform="matrix(.17228 0 0 .17219 359.92 456.43)" stroke="#000" stroke-width="19.469" fill="url(#radialGradient6993)"/>
      <path id="path5986" style="color:#000000" d="m-18.473 441.43a124.03 109.52 0 1 1 -0.939 -13.45" transform="matrix(.17228 0 0 .17219 183.7 521.64)" stroke="#000" stroke-width="19.469" fill="url(#radialGradient6971)"/>
      <path id="path5990" style="color:#000000" d="m-18.473 441.43a124.03 109.52 0 1 1 -0.939 -13.45" transform="matrix(.17228 0 0 .17219 327.69 591.36)" stroke="#000" stroke-width="19.469" fill="url(#radialGradient6993)"/>
      <path id="path5994" style="color:#000000" d="m-18.473 441.43a124.03 109.52 0 1 1 -0.939 -13.45" transform="matrix(.17228 0 0 .17219 461.08 432.21)" stroke="#000" stroke-width="19.469" fill="url(#radialGradient6993)"/>
      <path id="path5998" style="color:#000000" d="m-18.473 441.43a124.03 109.52 0 1 1 -0.939 -13.45" transform="matrix(.17228 0 0 .17219 326.18 297.31)" stroke="#000" stroke-width="19.469" fill="url(#radialGradient6993)"/>
      <path id="path6002" style="color:#000000" d="m-18.473 441.43a124.03 109.52 0 1 1 -0.939 -13.45" transform="matrix(.17228 0 0 .17219 435.31 244.26)" stroke="#000" stroke-width="19.469" fill="url(#radialGradient6993)"/>
      <path id="path6006" style="color:#000000" d="m-18.473 441.43a124.03 109.52 0 1 1 -0.939 -13.45" transform="matrix(.17228 0 0 .17219 347.4 230.62)" stroke="#000" stroke-width="19.469" fill="url(#radialGradient6993)"/>
      <path id="path6010" style="color:#000000" d="m-18.473 441.43a124.03 109.52 0 1 1 -0.939 -13.45" transform="matrix(.17228 0 0 .17219 489.88 668.66)" stroke="#000" stroke-width="19.469" fill="url(#radialGradient6993)"/>
      <path id="path6014" style="color:#000000" d="m-18.473 441.43a124.03 109.52 0 1 1 -0.939 -13.45" transform="matrix(.17228 0 0 .17219 550.5 511.03)" stroke="#000" stroke-width="19.469" fill="url(#radialGradient6993)"/>
      <path id="path6018" style="color:#000000" d="m-18.473 441.43a124.03 109.52 0 1 1 -0.939 -13.45" transform="matrix(.17228 0 0 .17219 197.34 755.06)" stroke="#000" stroke-width="19.469" fill="url(#radialGradient6993)"/>
      <path id="path6022" style="color:#000000" d="m-18.473 441.43a124.03 109.52 0 1 1 -0.939 -13.45" transform="matrix(.17228 0 0 .17219 512.61 824.78)" stroke="#000" stroke-width="19.469" fill="url(#radialGradient6993)"/>
      <path id="path6026" style="color:#000000" d="m-18.473 441.43a124.03 109.52 0 1 1 -0.939 -13.45" transform="matrix(.17228 0 0 .17219 642.96 761.12)" stroke="#000" stroke-width="19.469" fill="url(#radialGradient6993)"/>
      <path id="path6030" style="color:#000000" d="m-18.473 441.43a124.03 109.52 0 1 1 -0.939 -13.45" transform="matrix(.17228 0 0 .17219 424.7 103.3)" stroke="#000" stroke-width="19.469" fill="url(#radialGradient6993)"/>
      <path id="path6034" style="color:#000000" d="m-18.473 441.43a124.03 109.52 0 1 1 -0.939 -13.45" transform="matrix(.17228 0 0 .17219 268.58 821.75)" stroke="#000" stroke-width="19.469" fill="url(#radialGradient6993)"/>
      <path id="path6038" style="color:#000000" d="m-1185.5 409.09c-26 68.64-604.5 2.17-666.2 42.04-62 40.13-242.1 596.67-315.9 593.07-73.4-3.6-188.9-574.33-245.9-620.65-57.3-46.63-642.3-45.92-661.7-117.25-19.2-70.86 487.9-357.1 514.3-425.6 26.6-68.95-154.8-625.04-92.9-665.5 61.4-40.2 490.3 353.59 563.7 357.58 73.8 4.02 546.6-340.38 604.2-294.05 57.2 46.01-184.8 575.63-165.9 646.6 19 71.432 492.6 414.67 466.3 483.76z" transform="matrix(.041439 .030814 -.028968 .043324 478.72 99.783)" stroke="#000" stroke-width="78.483" fill="url(#radialGradient7021)"/>
    </g>
  </g>
  <metadata>
    <rdf:RDF>
      <cc:Work>
        <dc:format>image/svg+xml</dc:format>
        <dc:type rdf:resource="http://purl.org/dc/dcmitype/StillImage"/>
        <cc:license rdf:resource="http://creativecommons.org/licenses/publicdomain/"/>
        <dc:publisher>
          <cc:Agent rdf:about="http://openclipart.org/">
            <dc:title>Openclipart</dc:title>
          </cc:Agent>
        </dc:publisher>
      </cc:Work>
      <cc:License rdf:about="http://creativecommons.org/licenses/publicdomain/">
        <cc:permits rdf:resource="http://creativecommons.org/ns#Reproduction"/>
        <cc:permits rdf:resource="http://creativecommons.org/ns#Distribution"/>
        <cc:permits rdf:resource="http://creativecommons.org/ns#DerivativeWorks"/>
      </cc:License>
    </rdf:RDF>
  </metadata>
</svg>
